<svg width="167" height="157" viewBox="0 0 167 157" fill="none" xmlns="http://www.w3.org/2000/svg">
<path d="M0 71.8904C0 42.1275 24.3081 18 54.2937 18C63.0444 18 71.3116 20.0548 78.6323 23.7049C79.0594 23.9179 79.4833 24.1362 79.9039 24.36C96.829 33.1707 105.391 41.2642 120.069 42.7425C120.236 42.7575 120.403 42.7734 120.57 42.7901C146.645 45.3978 167 67.2486 167 93.8182C167 122.144 143.865 145.107 115.327 145.107C106.829 145.107 98.8095 143.071 91.7377 139.463C82.0022 134.496 76.2302 139.463 71.6891 145.107C65.8572 152.356 56.8775 157 46.8049 157C30.3654 157 16.837 144.629 15.1539 128.754C15.0373 127.655 14.9776 126.539 14.9776 125.409C14.9776 125.277 14.9784 125.145 14.98 125.013C13.9144 111.927 8.33986 100.869 6.87979 98.1661C6.76164 97.9565 6.64487 97.7461 6.52947 97.5348C5.16973 95.0449 4.00184 92.4368 3.04547 89.7299C1.07273 84.1464 0 78.1427 0 71.8904Z" fill="#1946BA"/>
<path d="M139 12C139 18.6274 133.627 24 127 24C120.373 24 115 18.6274 115 12C115 5.37258 120.373 0 127 0C133.627 0 139 5.37258 139 12Z" fill="#1946BA"/>
<path d="M102 16C102 19.3137 99.3137 22 96 22C92.6863 22 90 19.3137 90 16C90 12.6863 92.6863 10 96 10C99.3137 10 102 12.6863 102 16Z" fill="#1946BA"/>
<path d="M98.7121 97.3785H68.288C67.2959 97.3785 66.4919 98.1861 66.4919 99.1825C66.4919 100.179 67.2959 100.987 68.288 100.987H98.7121C99.7041 100.987 100.508 100.179 100.508 99.1825C100.508 98.1861 99.7041 97.3785 98.7121 97.3785Z" fill="white"/>
<path d="M98.7121 106.146H68.288C67.2959 106.146 66.4919 106.954 66.4919 107.95C66.4919 108.946 67.2959 109.754 68.288 109.754H98.7121C99.7041 109.754 100.508 108.946 100.508 107.95C100.508 106.954 99.7041 106.146 98.7121 106.146Z" fill="white"/>
<path d="M122.204 53H44.796C43.8054 53.0028 43.0028 53.809 43 54.804V75.1893C43.0028 76.1843 43.8054 76.9905 44.796 76.9933H57.7813V121.191C57.782 121.8 58.0851 122.368 58.5895 122.706C59.1002 123.032 59.7373 123.086 60.2957 122.851L67.4075 119.712L74.7894 122.851C75.2419 123.05 75.7561 123.05 76.2079 122.851L83.5 119.712L90.7921 122.851C91.2439 123.05 91.7581 123.05 92.2106 122.851L99.5925 119.712L106.704 122.851C106.931 122.951 107.176 123 107.423 122.995C107.9 123 108.36 122.811 108.698 122.473C109.036 122.133 109.224 121.671 109.219 121.191V76.9933H122.204C123.195 76.9905 123.997 76.1843 124 75.1893V54.804C123.997 53.809 123.195 53.0028 122.204 53ZM46.592 73.3853V56.608H57.7813V73.3853H46.592ZM100.311 116.086C99.8584 115.888 99.3442 115.888 98.8917 116.086L91.5105 119.243L84.2184 116.104C83.7659 115.906 83.2516 115.906 82.7998 116.104L75.5078 119.243L68.1259 116.086C67.6741 115.888 67.1598 115.888 66.7073 116.086L61.3909 118.431V56.608H105.645V118.431L100.311 116.086ZM120.408 73.3853H109.219V56.608H120.408V73.3853Z" fill="white"/>
<path d="M83.5001 84.9852C81.8451 84.9823 80.5038 83.635 80.5009 81.9726C80.5009 80.9762 79.697 80.1686 78.7049 80.1686C77.7129 80.1686 76.9089 80.9762 76.9089 81.9726C76.9124 84.9323 78.8691 87.5312 81.7041 88.3402V89.8017C81.7041 90.7981 82.5081 91.6057 83.5001 91.6057C84.4922 91.6057 85.2962 90.7981 85.2962 89.8017V88.3402C88.4616 87.4403 90.4807 84.3333 90.0282 81.0607C89.5757 77.7875 86.7898 75.3513 83.5001 75.3513C81.8437 75.3513 80.5009 74.0026 80.5009 72.3388C80.5009 70.675 81.8437 69.3262 83.5001 69.3262C85.1565 69.3262 86.4993 70.675 86.4993 72.3388C86.4993 73.3352 87.3033 74.1428 88.2953 74.1428C89.2874 74.1428 90.0914 73.3352 90.0914 72.3388C90.0878 69.3791 88.1312 66.7802 85.2962 65.9705V64.8881C85.2962 63.8924 84.4922 63.0841 83.5001 63.0841C82.5081 63.0841 81.7041 63.8924 81.7041 64.8881V65.9705C78.5387 66.8711 76.5196 69.9781 76.9721 73.2507C77.4246 76.5232 80.2105 78.9601 83.5001 78.9594C85.1565 78.9594 86.4993 80.3081 86.4993 81.9726C86.4993 83.6364 85.1565 84.9852 83.5001 84.9852Z" fill="white"/>
</svg>
