<svg width="168" height="141" viewBox="0 0 168 141" fill="none" xmlns="http://www.w3.org/2000/svg">
<path d="M0 75.0484C0 111.472 29.59 141 66.0912 141C87.1739 141 105.951 131.149 118.052 115.809C127.961 103.248 135.829 97.5641 148.051 86.8742C158.44 77.7872 165 64.4468 165 49.5774C165 22.1966 142.756 0 115.318 0C110.409 0 105.666 0.710393 101.188 2.03377C85.6906 6.61305 77.942 7.90348 60.6215 9.3194C26.6793 12.0941 0 40.4622 0 75.0484Z" fill="white"/>
<path d="M168 117C168 125.284 161.284 132 153 132C144.716 132 138 125.284 138 117C138 108.716 144.716 102 153 102C161.284 102 168 108.716 168 117Z" fill="white"/>
<path d="M167 92C167 89.7909 165.209 88 163 88C160.791 88 159 89.7909 159 92C159 94.2091 160.791 96 163 96C165.209 96 167 94.2091 167 92Z" fill="white"/>
<path d="M118.247 63.161L108.345 53.9967C106.18 51.9928 103.338 50.8796 100.387 50.8809H95.3278V49.8586C95.3259 45.233 91.5765 41.4837 86.9509 41.4817H50.377C45.7513 41.4837 42.002 45.233 42 49.8586V87.3704C42.0026 88.2951 42.7513 89.0432 43.6754 89.0458H48.9025C49.6256 93.3311 53.3364 96.4679 57.6819 96.4679C62.0268 96.4679 65.7375 93.3311 66.4607 89.0458H97.6564C98.3795 93.3311 102.09 96.4679 106.436 96.4679C110.781 96.4679 114.491 93.3311 115.215 89.0458H120.325C121.249 89.0432 121.997 88.2951 122 87.3704V71.7729C122.011 68.5033 120.65 65.3789 118.247 63.161V63.161ZM115.969 65.6243H106.05V56.4431L106.067 56.4594L115.969 65.6243ZM50.377 44.8325H86.9509C89.7231 44.8403 91.9685 47.0864 91.977 49.8586V69.2762H45.3508V49.8586C45.3586 47.0864 47.6047 44.8403 50.377 44.8325V44.8325ZM57.6819 93.1171C54.6191 93.1171 52.1361 90.6341 52.1361 87.572C52.1361 84.5091 54.6191 82.0262 57.6819 82.0262C60.7441 82.0262 63.2271 84.5091 63.2271 87.572C63.2238 90.6328 60.7428 93.1138 57.6819 93.1171V93.1171ZM57.6819 78.6584C53.4843 78.6642 49.8586 81.5936 48.9699 85.695H45.3508V72.627H91.977V85.695H66.394C65.5098 81.5903 61.8809 78.659 57.6819 78.6584V78.6584ZM106.436 93.1171C103.373 93.1171 100.89 90.6341 100.89 87.572C100.89 84.5091 103.373 82.0262 106.436 82.0262C109.498 82.0262 111.981 84.5091 111.981 87.572C111.978 90.6328 109.497 93.1138 106.436 93.1171V93.1171ZM118.666 85.695H115.148C114.264 81.5903 110.635 78.6584 106.436 78.6584C102.236 78.6584 98.6066 81.5903 97.7238 85.695H95.3278V54.2317H100.387C101.169 54.235 101.946 54.3423 102.7 54.5497V65.6243C102.705 67.4725 104.202 68.9692 106.05 68.9751H118.18C118.503 69.8724 118.667 70.8194 118.666 71.7729V85.695Z" fill="#1946BA"/>
</svg>
