<svg width="160" height="140" viewBox="0 0 160 140" fill="none" xmlns="http://www.w3.org/2000/svg">
<path d="M149.959 93.0715C137.494 124.921 101.545 140.626 69.6634 128.149C68.0547 127.519 66.4872 126.83 64.9622 126.084C53.4015 120.432 50.7568 121.666 46.7124 127.88C40.3291 137.688 27.7297 142.007 16.3943 137.571C3.4219 132.494 -2.98263 117.872 2.08933 104.913C4.98052 97.5253 10.9768 92.2725 18.0015 90.0617C23.7609 88.249 23.2946 84.7482 18.6837 80.1073C6.07505 67.4169 1.40055 48.0208 8.3337 30.3056C17.0727 7.97636 41.1671 -3.79634 63.8151 2.32743C79.1758 6.48083 82.2765 7.94253 95.3306 8.60552C101.837 8.93596 108.402 10.3051 114.803 12.8103C146.684 25.2876 162.424 61.2217 149.959 93.0715Z" fill="#1946BA"/>
<path d="M159.001 128C159.001 131.314 156.315 134 153.001 134C149.688 134 147.001 131.314 147.001 128C147.001 124.686 149.688 122 153.001 122C156.315 122 159.001 124.686 159.001 128Z" fill="#1946BA"/>
<path d="M114.3 38H50.2627C45.4582 38.002 41.564 41.8747 41.5619 46.6526V73.8562C35.7209 80.003 34.3383 89.1132 38.0952 96.6998C41.8522 104.287 49.9561 108.752 58.4162 107.895C66.8764 107.039 73.9097 101.042 76.0516 92.8575H114.3C119.105 92.8561 123 88.9827 123.001 84.2049V46.6526C123 41.8747 119.105 38.002 114.3 38ZM45.0422 53.5747H119.521V61.189H45.0422V53.5747ZM50.2627 41.461H114.3C117.18 41.4692 119.513 43.7891 119.521 46.6526V50.1136H45.0422V46.6526C45.0449 43.7864 47.3806 41.4631 50.2627 41.461ZM56.3532 104.522C47.0312 104.522 39.4737 97.006 39.4737 87.7356C39.4737 78.4644 47.0312 70.9495 56.3532 70.9495C65.6759 70.9495 73.2327 78.4644 73.2327 87.7356C73.2238 97.0019 65.6718 104.513 56.3532 104.522ZM114.3 89.3964H76.6436C76.696 88.8604 76.713 88.3061 76.713 87.7525C76.7198 80.2788 72.5828 73.4108 65.9539 69.8902C59.3251 66.3697 51.2843 66.7699 45.0422 70.9319V64.65H119.521V84.2049C119.513 87.069 117.18 89.3883 114.3 89.3964Z" fill="white"/>
<path d="M105.686 71.2956C103.128 71.2949 100.781 72.7091 99.5957 74.9642C98.1295 72.1751 94.9381 70.742 91.865 71.4923C88.7918 72.2433 86.6309 74.9838 86.6309 78.1312C86.6309 81.2779 88.7918 84.0183 91.865 84.7693C94.9381 85.5197 98.1295 84.0866 99.5957 81.2975C101.158 84.2698 104.658 85.6752 107.857 84.6166C111.057 83.558 113.012 80.3477 112.472 77.0374C111.933 73.7271 109.058 71.2949 105.686 71.2956ZM93.5052 81.5057C92.1314 81.505 90.8929 80.681 90.3689 79.4182C89.8448 78.1548 90.1377 76.7021 91.1118 75.7389C92.0866 74.7749 93.5487 74.4903 94.8158 75.0183C96.0835 75.5462 96.906 76.7819 96.8985 78.1481C96.8931 80.0063 95.3745 81.5091 93.5052 81.5057ZM105.686 81.5057C104.312 81.505 103.074 80.681 102.55 79.4182C102.026 78.1548 102.319 76.7021 103.293 75.7389C104.268 74.7749 105.73 74.4903 106.997 75.0183C108.265 75.5462 109.087 76.7819 109.08 78.1481C109.074 80.0063 107.556 81.5091 105.686 81.5057Z" fill="white"/>
<path d="M61.6608 82.3534L54.5262 89.4485L51.0636 85.9699C50.3906 85.2912 49.2922 85.2838 48.6097 85.953C47.9272 86.6215 47.9197 87.7139 48.5927 88.3926L53.2911 93.1002C53.616 93.43 54.0613 93.6173 54.5262 93.6193C54.9878 93.6159 55.4303 93.4361 55.762 93.1171L64.1317 84.7937C64.458 84.4699 64.6408 84.0312 64.6408 83.5735C64.6408 83.1159 64.458 82.6765 64.1317 82.3534C63.4479 81.6781 62.3446 81.6781 61.6608 82.3534Z" fill="white"/>
</svg>
