<svg width="164" height="136" viewBox="0 0 164 136" fill="none" xmlns="http://www.w3.org/2000/svg">
<path d="M162.571 73.9498C168.924 40.2574 146.846 7.80928 113.257 1.47497C79.668 -4.85933 47.288 17.3188 40.9342 51.0112C40.8699 51.3519 40.8086 51.6925 40.7501 52.0329C39.4308 58.8646 35.1847 72.2505 27.1081 78.5651L27.0411 78.6173C21.3353 83.0713 17.1614 89.5481 15.7126 97.2307C12.5576 113.961 23.5207 130.073 40.1994 133.218C48.9938 134.877 57.6214 132.599 64.2754 127.622C70.3411 123.096 77.4306 122.355 95.3199 124.229C127.038 127.553 156.537 105.942 162.571 73.9498Z" fill="white"/>
<path d="M20 52.9999C20 58.5228 15.5228 62.9999 10 62.9999C4.47715 62.9999 0 58.5228 0 52.9999C0 47.4771 4.47715 42.9999 10 42.9999C15.5228 42.9999 20 47.4771 20 52.9999Z" fill="white"/>
<path d="M82 133C82 134.657 80.6569 136 79 136C77.3431 136 76 134.657 76 133C76 131.343 77.3431 130 79 130C80.6569 130 82 131.343 82 133Z" fill="white"/>
<path d="M123.998 44.6733H65.113C60.6951 44.6752 57.1141 48.2562 57.1123 52.6741V77.8283C51.7411 83.5119 50.4698 91.9358 53.9245 98.9508C57.3792 105.966 64.8311 110.095 72.6106 109.303C80.39 108.511 86.8575 102.966 88.8271 95.398H123.998C128.416 95.3968 131.998 91.8152 131.999 87.3973V52.6741C131.998 48.2562 128.416 44.6752 123.998 44.6733ZM60.3126 59.0747H128.799V66.1153H60.3126V59.0747ZM65.113 47.8736H123.998C126.647 47.8811 128.791 50.0263 128.799 52.6741V55.8744H60.3126V52.6741C60.3151 50.0238 62.4628 47.8755 65.113 47.8736ZM70.7135 106.183C62.1415 106.183 55.1921 99.234 55.1921 90.6619C55.1921 82.0893 62.1415 75.1405 70.7135 75.1405C79.2862 75.1405 86.2349 82.0893 86.2349 90.6619C86.2268 99.2302 79.2824 106.175 70.7135 106.183ZM123.998 92.1977H89.3715C89.4196 91.702 89.4352 91.1895 89.4352 90.6776C89.4415 83.7669 85.6374 77.4163 79.5418 74.161C73.4463 70.9058 66.0525 71.2758 60.3126 75.1243V69.3156H128.799V87.3973C128.791 90.0456 126.647 92.1902 123.998 92.1977Z" fill="#1946BA"/>
<path d="M116.078 75.4605C113.726 75.4599 111.568 76.7675 110.478 78.8527C109.13 76.2737 106.195 74.9486 103.369 75.6424C100.543 76.3368 98.556 78.8708 98.556 81.7811C98.556 84.6907 100.543 87.2247 103.369 87.9191C106.195 88.613 109.13 87.2878 110.478 84.7088C111.915 87.4572 115.133 88.7567 118.075 87.7779C121.017 86.799 122.815 83.8306 122.318 80.7697C121.823 77.7088 119.179 75.4599 116.078 75.4605ZM104.877 84.9014C103.614 84.9007 102.475 84.1388 101.993 82.9712C101.511 81.8029 101.781 80.4597 102.676 79.569C103.573 78.6777 104.917 78.4145 106.082 78.9027C107.248 79.3908 108.004 80.5335 107.998 81.7967C107.993 83.515 106.596 84.9045 104.877 84.9014ZM116.078 84.9014C114.815 84.9007 113.676 84.1388 113.194 82.9712C112.712 81.8029 112.982 80.4597 113.877 79.569C114.774 78.6777 116.118 78.4145 117.283 78.9027C118.449 79.3908 119.205 80.5335 119.199 81.7967C119.194 83.515 117.797 84.9045 116.078 84.9014Z" fill="#1946BA"/>
<path d="M70.7141 83.5569C72.1893 83.5594 73.3837 84.7545 73.3862 86.229C73.3862 87.1128 74.1032 87.8292 74.9864 87.8292C75.8702 87.8292 76.5865 87.1128 76.5865 86.229C76.5834 83.6038 74.8401 81.2986 72.3143 80.581V79.6209C72.3143 78.7371 71.598 78.0208 70.7141 78.0208C69.8303 78.0208 69.114 78.7371 69.114 79.6209V80.581C66.2943 81.3792 64.4948 84.1351 64.898 87.0378C65.3011 89.9406 67.7832 92.1021 70.7141 92.1021C72.1899 92.1021 73.3862 93.2984 73.3862 94.7742C73.3862 96.2499 72.1899 97.4463 70.7141 97.4463C69.2384 97.4463 68.042 96.2499 68.042 94.7742C68.042 93.8903 67.3257 93.174 66.4419 93.174C65.558 93.174 64.8417 93.8903 64.8417 94.7742C64.8448 97.3994 66.5887 99.7046 69.114 100.423V101.719C69.114 102.602 69.8303 103.319 70.7141 103.319C71.598 103.319 72.3143 102.602 72.3143 101.719V100.423C75.1345 99.624 76.9334 96.8681 76.5303 93.9653C76.1271 91.0626 73.645 88.9011 70.7141 88.9018C69.2384 88.9018 68.042 87.7048 68.042 86.229C68.042 84.7532 69.2384 83.5569 70.7141 83.5569Z" fill="#1946BA"/>
</svg>
