<svg width="172" height="140" viewBox="0 0 172 140" fill="none" xmlns="http://www.w3.org/2000/svg">
<path d="M4.56984 93.0715C17.0348 124.921 52.9845 140.626 84.8657 128.149C86.4744 127.519 88.0419 126.83 89.5669 126.084C101.128 120.433 103.772 121.666 107.817 127.88C114.2 137.688 126.799 142.007 138.135 137.571C151.107 132.494 157.512 117.872 152.44 104.913C149.549 97.5253 143.552 92.2726 136.528 90.0617C130.768 88.249 131.234 84.7482 135.845 80.1073C148.454 67.4169 153.129 48.0208 146.195 30.3057C137.456 7.97637 113.362 -3.79633 90.714 2.32744C75.3532 6.48084 72.2526 7.94254 59.1985 8.60554C52.6923 8.93597 46.1272 10.3051 39.726 12.8103C7.84481 25.2876 -7.89515 61.2218 4.56984 93.0715Z" fill="white"/>
<path d="M172 133C172 136.314 169.314 139 166 139C162.686 139 160 136.314 160 133C160 129.686 162.686 127 166 127C169.314 127 172 129.686 172 133Z" fill="white"/>
<path d="M66.7964 58.9822C65.2107 58.9795 63.9255 57.6943 63.9228 56.1086C63.9228 55.1581 63.1525 54.3878 62.202 54.3878C61.2515 54.3878 60.4812 55.1581 60.4812 56.1086C60.4845 58.9318 62.36 61.4108 65.0756 62.1825V63.5766C65.0756 64.5271 65.8459 65.2974 66.7964 65.2974C67.7469 65.2974 68.5172 64.5271 68.5172 63.5766V62.1825C71.5501 61.3241 73.4847 58.3605 73.0511 55.2388C72.6175 52.1165 69.9483 49.7927 66.7964 49.7927C65.2094 49.7927 63.9228 48.5062 63.9228 46.9191C63.9228 45.3321 65.2094 44.0455 66.7964 44.0455C68.3834 44.0455 69.67 45.3321 69.67 46.9191C69.67 47.8696 70.441 48.6399 71.3908 48.6399C72.3413 48.6399 73.1116 47.8696 73.1116 46.9191C73.1082 44.096 71.2335 41.6169 68.5172 40.8446V39.8121C68.5172 38.8623 67.7469 38.0913 66.7964 38.0913C65.8459 38.0913 65.0756 38.8623 65.0756 39.8121V40.8446C62.0434 41.7036 60.1081 44.6673 60.5417 47.789C60.9752 50.9106 63.6445 53.235 66.7964 53.2343C68.3834 53.2343 69.67 54.5209 69.67 56.1086C69.67 57.6957 68.3834 58.9822 66.7964 58.9822Z" fill="#1946BA"/>
<path d="M102.159 55.7813V39.1756C102.155 35.2144 98.9444 32.004 94.9832 32H50.1564C46.3532 32 43.2389 35.0632 43.2389 38.8314L42.9808 82.2131H36.0801C35.131 82.2158 34.362 82.9848 34.3593 83.9339V91.3851C34.3701 96.2242 38.1807 100.201 43.0151 100.419V100.436H81.6988V100.419C81.8709 100.436 82.043 100.436 82.215 100.436C87.2114 100.43 91.26 96.3814 91.266 91.3851V57.4853H100.438C100.894 57.4934 101.334 57.3173 101.658 56.9966C101.982 56.6753 102.163 56.2377 102.159 55.7813ZM37.8009 91.4019V85.6715H73.1634V91.4019C73.1654 93.44 73.8571 95.4169 75.1255 97.012H43.411C40.3129 97.0113 37.8016 94.5 37.8009 91.4019ZM87.8244 39.1756V91.4019C87.8244 94.5 85.3132 97.012 82.215 97.012C79.1169 97.012 76.605 94.5 76.605 91.4019V83.9507C76.6023 83.0016 75.8333 82.2326 74.8842 82.2299H46.4392L46.6973 38.8489C46.7168 36.948 48.2729 35.4228 50.1739 35.4416H88.8919C88.1908 36.5608 87.8211 37.8554 87.8244 39.1756ZM91.266 54.0605V39.1756C91.266 37.1133 92.9384 35.4416 95.0007 35.4416C97.063 35.4416 98.7347 37.1133 98.7347 39.1756V54.0605H91.266Z" fill="#1946BA"/>
<path d="M80.46 68.3264H53.0132C52.0627 68.3264 51.2924 69.0968 51.2924 70.0472C51.2924 70.997 52.0627 71.768 53.0132 71.768H80.4768C81.4272 71.7633 82.1935 70.989 82.1888 70.0385C82.1841 69.088 81.4098 68.3217 80.46 68.3264Z" fill="#1946BA"/>
<path d="M69.6189 75.3643H53.0132C52.0627 75.3643 51.2924 76.1346 51.2924 77.0851C51.2924 78.0355 52.0627 78.8059 53.0132 78.8059H69.6189C70.5687 78.8059 71.3397 78.0355 71.3397 77.0851C71.3397 76.1346 70.5687 75.3643 69.6189 75.3643Z" fill="#1946BA"/>
<path d="M104.912 63.043C101.208 63.0477 98.2057 66.0497 98.201 69.7541V99.5757C98.1983 99.6395 98.2043 99.7034 98.2185 99.7652V99.7995C98.2185 99.8513 98.2353 99.8856 98.2353 99.9373C98.2333 99.9561 98.2393 99.975 98.2527 99.9891C98.2622 100.029 98.2736 100.07 98.287 100.109C98.287 100.126 98.3045 100.144 98.3045 100.161C98.3213 100.195 98.3388 100.247 98.3563 100.281C98.3563 100.291 98.3637 100.298 98.3731 100.298L103.449 111.019C103.735 111.616 104.337 111.996 104.998 112H105.016C105.682 111.999 106.287 111.609 106.564 111.002L111.469 100.281V100.264C111.485 100.23 111.503 100.178 111.52 100.144C111.522 100.131 111.528 100.119 111.537 100.109C111.557 100.066 111.569 100.019 111.571 99.9716C111.571 99.9541 111.571 99.9541 111.589 99.9373C111.603 99.8869 111.609 99.8345 111.606 99.782V99.7478C111.606 99.696 111.623 99.6274 111.623 99.5589V69.7541C111.619 66.0497 108.617 63.0477 104.912 63.043ZM101.643 97.8549V75.0886H108.182V97.8549H101.643ZM104.912 66.4846C106.718 66.4839 108.182 67.9486 108.182 69.7541V71.647H101.643V69.7541C101.642 67.9486 103.106 66.4839 104.912 66.4846ZM104.981 106.201L102.658 101.28H107.235L104.981 106.201Z" fill="#1946BA"/>
</svg>
