<svg width="335" height="305" viewBox="0 0 335 305" fill="none" xmlns="http://www.w3.org/2000/svg">
<g filter="url(#filter0_d_7_336)">
<rect x="20" y="15" width="295" height="265" fill="white"/>
</g>
<path d="M41.6963 167.15H43.6211V173.83C43.6211 174.527 43.6035 175.233 43.5684 175.948C43.5332 176.657 43.5068 177.138 43.4893 177.39H43.5684L50.1338 167.15H52.5859V180H50.6523V173.373C50.6523 172.359 50.708 171.129 50.8193 169.682H50.749L44.1572 180H41.6963V167.15ZM57.7979 170.279V174.182H62.377V170.279H64.4424V180H62.377V175.808H57.7979V180H55.7324V170.279H57.7979ZM76.7295 183.437H74.8047V180H68.1426V183.437H66.2354V178.4H67.0264C67.7178 177.41 68.2656 176.215 68.6699 174.814C69.0801 173.408 69.3232 171.896 69.3994 170.279H75.3057V178.4H76.7295V183.437ZM73.2754 178.4V171.861H71.1836C71.0723 173.068 70.8379 174.258 70.4805 175.43C70.1289 176.602 69.6982 177.592 69.1885 178.4H73.2754ZM80.5088 170.279V175.263C80.5088 175.843 80.4619 176.695 80.3682 177.82L85.2461 170.279H87.7686V180H85.7822V175.104C85.7822 174.835 85.7969 174.398 85.8262 173.795C85.8613 173.191 85.8906 172.752 85.9141 172.477L81.0537 180H78.5312V170.279H80.5088ZM99.1504 172.767C99.1504 173.915 98.4795 174.609 97.1377 174.85V174.92C97.8877 175.008 98.4619 175.245 98.8604 175.632C99.2588 176.019 99.458 176.52 99.458 177.135C99.458 178.055 99.1064 178.764 98.4033 179.262C97.7061 179.754 96.6895 180 95.3535 180H90.7129V170.279H95.3359C97.8789 170.279 99.1504 171.108 99.1504 172.767ZM97.3398 177.012C97.3398 176.543 97.1582 176.212 96.7949 176.019C96.4316 175.819 95.8867 175.72 95.1602 175.72H92.7783V178.471H95.2129C96.6309 178.471 97.3398 177.984 97.3398 177.012ZM97.085 172.942C97.085 172.556 96.9326 172.277 96.6279 172.107C96.3291 171.932 95.8809 171.844 95.2832 171.844H92.7783V174.182H94.9756C95.667 174.182 96.1914 174.094 96.5488 173.918C96.9062 173.736 97.085 173.411 97.085 172.942ZM103.571 170.279V175.263C103.571 175.843 103.524 176.695 103.431 177.82L108.309 170.279H110.831V180H108.845V175.104C108.845 174.835 108.859 174.398 108.889 173.795C108.924 173.191 108.953 172.752 108.977 172.477L104.116 180H101.594V170.279H103.571ZM123.101 183.437H121.176V180H114.514V183.437H112.606V178.4H113.397C114.089 177.41 114.637 176.215 115.041 174.814C115.451 173.408 115.694 171.896 115.771 170.279H121.677V178.4H123.101V183.437ZM119.646 178.4V171.861H117.555C117.443 173.068 117.209 174.258 116.852 175.43C116.5 176.602 116.069 177.592 115.56 178.4H119.646ZM123.426 170.279H125.676L127.653 175.79C127.952 176.575 128.151 177.313 128.251 178.005H128.321C128.374 177.683 128.471 177.293 128.611 176.836C128.752 176.373 129.496 174.188 130.844 170.279H133.076L128.919 181.292C128.163 183.313 126.903 184.324 125.14 184.324C124.683 184.324 124.237 184.274 123.804 184.175V182.54C124.114 182.61 124.469 182.646 124.867 182.646C125.863 182.646 126.563 182.068 126.968 180.914L127.328 180L123.426 170.279ZM140.635 180L140.222 178.646H140.151C139.683 179.238 139.211 179.643 138.736 179.859C138.262 180.07 137.652 180.176 136.908 180.176C135.953 180.176 135.206 179.918 134.667 179.402C134.134 178.887 133.867 178.157 133.867 177.214C133.867 176.212 134.239 175.456 134.983 174.946C135.728 174.437 136.861 174.158 138.385 174.111L140.063 174.059V173.54C140.063 172.919 139.917 172.456 139.624 172.151C139.337 171.841 138.889 171.686 138.279 171.686C137.781 171.686 137.304 171.759 136.847 171.905C136.39 172.052 135.95 172.225 135.528 172.424L134.86 170.947C135.388 170.672 135.965 170.464 136.592 170.323C137.219 170.177 137.811 170.104 138.367 170.104C139.604 170.104 140.535 170.373 141.162 170.912C141.795 171.451 142.111 172.298 142.111 173.452V180H140.635ZM137.559 178.594C138.309 178.594 138.909 178.386 139.36 177.97C139.817 177.548 140.046 176.959 140.046 176.203V175.359L138.798 175.412C137.825 175.447 137.116 175.611 136.671 175.904C136.231 176.191 136.012 176.634 136.012 177.231C136.012 177.665 136.141 178.002 136.398 178.242C136.656 178.477 137.043 178.594 137.559 178.594ZM152.983 180H150.9V171.896H148.22C148.056 173.982 147.833 175.611 147.552 176.783C147.276 177.955 146.913 178.811 146.462 179.35C146.017 179.889 145.437 180.158 144.722 180.158C144.271 180.158 143.893 180.094 143.588 179.965V178.348C143.805 178.43 144.021 178.471 144.238 178.471C144.836 178.471 145.305 177.8 145.645 176.458C145.99 175.11 146.26 173.051 146.453 170.279H152.983V180ZM158.011 174.164H160.445C163.158 174.164 164.515 175.102 164.515 176.977C164.515 177.967 164.169 178.72 163.478 179.235C162.786 179.745 161.775 180 160.445 180H155.945V170.279H158.011V174.164ZM162.44 177.029C162.44 176.543 162.256 176.203 161.887 176.01C161.518 175.816 160.996 175.72 160.322 175.72H158.011V178.471H160.357C161.037 178.471 161.553 178.348 161.904 178.102C162.262 177.855 162.44 177.498 162.44 177.029ZM168.874 170.279V174.182H173.453V170.279H175.519V180H173.453V175.808H168.874V180H166.809V170.279H168.874ZM180.546 174.164H182.515C183.874 174.164 184.879 174.398 185.529 174.867C186.18 175.336 186.505 176.039 186.505 176.977C186.505 177.979 186.165 178.734 185.485 179.244C184.812 179.748 183.821 180 182.515 180H178.48V170.279H180.546V174.164ZM184.457 177.029C184.457 176.543 184.275 176.203 183.912 176.01C183.555 175.816 183.039 175.72 182.365 175.72H180.546V178.471H182.102C182.934 178.471 183.534 178.354 183.903 178.119C184.272 177.885 184.457 177.521 184.457 177.029ZM190.108 180H188.034V170.279H190.108V180ZM197.315 180.176C195.804 180.176 194.62 179.736 193.765 178.857C192.915 177.973 192.49 176.757 192.49 175.21C192.49 173.622 192.886 172.374 193.677 171.466C194.468 170.558 195.555 170.104 196.938 170.104C198.221 170.104 199.234 170.493 199.979 171.272C200.723 172.052 201.095 173.124 201.095 174.489V175.605H194.617C194.646 176.549 194.901 177.275 195.382 177.785C195.862 178.289 196.539 178.541 197.412 178.541C197.986 178.541 198.52 178.488 199.012 178.383C199.51 178.271 200.043 178.09 200.611 177.838V179.517C200.107 179.757 199.598 179.927 199.082 180.026C198.566 180.126 197.978 180.176 197.315 180.176ZM196.938 171.668C196.281 171.668 195.754 171.876 195.355 172.292C194.963 172.708 194.729 173.314 194.652 174.111H199.064C199.053 173.309 198.859 172.702 198.484 172.292C198.109 171.876 197.594 171.668 196.938 171.668ZM212.037 180.176C210.566 180.176 209.447 179.748 208.68 178.893C207.918 178.031 207.537 176.798 207.537 175.192C207.537 173.558 207.936 172.301 208.732 171.422C209.535 170.543 210.692 170.104 212.204 170.104C213.229 170.104 214.152 170.294 214.973 170.675L214.349 172.336C213.476 171.996 212.755 171.826 212.187 171.826C210.505 171.826 209.664 172.942 209.664 175.175C209.664 176.265 209.872 177.085 210.288 177.636C210.71 178.181 211.325 178.453 212.134 178.453C213.054 178.453 213.924 178.225 214.744 177.768V179.569C214.375 179.786 213.979 179.941 213.558 180.035C213.142 180.129 212.635 180.176 212.037 180.176ZM223.059 170.279H225.326L221.31 174.964L225.669 180H223.296L219.095 175.069V180H217.029V170.279H219.095V174.999L223.059 170.279ZM229.255 170.279V175.263C229.255 175.843 229.208 176.695 229.114 177.82L233.992 170.279H236.515V180H234.528V175.104C234.528 174.835 234.543 174.398 234.572 173.795C234.607 173.191 234.637 172.752 234.66 172.477L229.8 180H227.277V170.279H229.255ZM248.784 183.437H246.859V180H240.197V183.437H238.29V178.4H239.081C239.772 177.41 240.32 176.215 240.725 174.814C241.135 173.408 241.378 171.896 241.454 170.279H247.36V178.4H248.784V183.437ZM245.33 178.4V171.861H243.238C243.127 173.068 242.893 174.258 242.535 175.43C242.184 176.602 241.753 177.592 241.243 178.4H245.33ZM256.615 170.279H258.883L254.866 174.964L259.226 180H256.853L252.651 175.069V180H250.586V170.279H252.651V174.999L256.615 170.279ZM262.812 170.279V175.263C262.812 175.843 262.765 176.695 262.671 177.82L267.549 170.279H270.071V180H268.085V175.104C268.085 174.835 268.1 174.398 268.129 173.795C268.164 173.191 268.193 172.752 268.217 172.477L263.356 180H260.834V170.279H262.812ZM49.9141 199.767C49.9141 200.915 49.2432 201.609 47.9014 201.85V201.92C48.6514 202.008 49.2256 202.245 49.624 202.632C50.0225 203.019 50.2217 203.52 50.2217 204.135C50.2217 205.055 49.8701 205.764 49.167 206.262C48.4697 206.754 47.4531 207 46.1172 207H41.4766V197.279H46.0996C48.6426 197.279 49.9141 198.108 49.9141 199.767ZM48.1035 204.012C48.1035 203.543 47.9219 203.212 47.5586 203.019C47.1953 202.819 46.6504 202.72 45.9238 202.72H43.542V205.471H45.9766C47.3945 205.471 48.1035 204.984 48.1035 204.012ZM47.8486 199.942C47.8486 199.556 47.6963 199.277 47.3916 199.107C47.0928 198.932 46.6445 198.844 46.0469 198.844H43.542V201.182H45.7393C46.4307 201.182 46.9551 201.094 47.3125 200.918C47.6699 200.736 47.8486 200.411 47.8486 199.942ZM59.1777 201.164C60.1211 201.164 60.8154 201.062 61.2607 200.856C61.7061 200.646 61.9287 200.323 61.9287 199.89C61.9287 199.099 61.2256 198.703 59.8193 198.703C58.8818 198.703 57.9238 198.914 56.9453 199.336L56.2773 197.798C57.4082 197.335 58.6562 197.104 60.0215 197.104C61.2285 197.104 62.166 197.326 62.834 197.771C63.502 198.211 63.8359 198.844 63.8359 199.67C63.8359 200.76 63.2119 201.475 61.9639 201.814V201.885C62.7432 202.096 63.2998 202.397 63.6338 202.79C63.9736 203.183 64.1436 203.669 64.1436 204.249C64.1436 205.14 63.751 205.852 62.9658 206.385C62.1865 206.912 61.0967 207.176 59.6963 207.176C58.167 207.176 56.998 206.974 56.1895 206.569V204.785C57.2617 205.289 58.3721 205.541 59.5205 205.541C60.3467 205.541 60.9824 205.427 61.4277 205.198C61.8789 204.964 62.1045 204.609 62.1045 204.135C62.1045 203.648 61.8789 203.291 61.4277 203.062C60.9766 202.834 60.2793 202.72 59.3359 202.72H58.1494V201.164H59.1777ZM72.4668 207L72.0537 205.646H71.9834C71.5146 206.238 71.043 206.643 70.5684 206.859C70.0938 207.07 69.4844 207.176 68.7402 207.176C67.7852 207.176 67.0381 206.918 66.499 206.402C65.9658 205.887 65.6992 205.157 65.6992 204.214C65.6992 203.212 66.0713 202.456 66.8154 201.946C67.5596 201.437 68.6934 201.158 70.2168 201.111L71.8955 201.059V200.54C71.8955 199.919 71.749 199.456 71.4561 199.151C71.1689 198.841 70.7207 198.686 70.1113 198.686C69.6133 198.686 69.1357 198.759 68.6787 198.905C68.2217 199.052 67.7822 199.225 67.3604 199.424L66.6924 197.947C67.2197 197.672 67.7969 197.464 68.4238 197.323C69.0508 197.177 69.6426 197.104 70.1992 197.104C71.4355 197.104 72.3672 197.373 72.9941 197.912C73.627 198.451 73.9434 199.298 73.9434 200.452V207H72.4668ZM69.3906 205.594C70.1406 205.594 70.7412 205.386 71.1924 204.97C71.6494 204.548 71.8779 203.959 71.8779 203.203V202.359L70.6299 202.412C69.6572 202.447 68.9482 202.611 68.5029 202.904C68.0635 203.191 67.8438 203.634 67.8438 204.231C67.8438 204.665 67.9727 205.002 68.2305 205.242C68.4883 205.477 68.875 205.594 69.3906 205.594ZM85.2637 199.767C85.2637 200.915 84.5928 201.609 83.251 201.85V201.92C84.001 202.008 84.5752 202.245 84.9736 202.632C85.3721 203.019 85.5713 203.52 85.5713 204.135C85.5713 205.055 85.2197 205.764 84.5166 206.262C83.8193 206.754 82.8027 207 81.4668 207H76.8262V197.279H81.4492C83.9922 197.279 85.2637 198.108 85.2637 199.767ZM83.4531 204.012C83.4531 203.543 83.2715 203.212 82.9082 203.019C82.5449 202.819 82 202.72 81.2734 202.72H78.8916V205.471H81.3262C82.7441 205.471 83.4531 204.984 83.4531 204.012ZM83.1982 199.942C83.1982 199.556 83.0459 199.277 82.7412 199.107C82.4424 198.932 81.9941 198.844 81.3965 198.844H78.8916V201.182H81.0889C81.7803 201.182 82.3047 201.094 82.6621 200.918C83.0195 200.736 83.1982 200.411 83.1982 199.942ZM89.6846 197.279V202.263C89.6846 202.843 89.6377 203.695 89.5439 204.82L94.4219 197.279H96.9443V207H94.958V202.104C94.958 201.835 94.9727 201.398 95.002 200.795C95.0371 200.191 95.0664 199.752 95.0898 199.477L90.2295 207H87.707V197.279H89.6846ZM103.809 207.176C102.338 207.176 101.219 206.748 100.451 205.893C99.6895 205.031 99.3086 203.798 99.3086 202.192C99.3086 200.558 99.707 199.301 100.504 198.422C101.307 197.543 102.464 197.104 103.976 197.104C105.001 197.104 105.924 197.294 106.744 197.675L106.12 199.336C105.247 198.996 104.526 198.826 103.958 198.826C102.276 198.826 101.436 199.942 101.436 202.175C101.436 203.265 101.644 204.085 102.06 204.636C102.481 205.181 103.097 205.453 103.905 205.453C104.825 205.453 105.695 205.225 106.516 204.768V206.569C106.146 206.786 105.751 206.941 105.329 207.035C104.913 207.129 104.406 207.176 103.809 207.176ZM110.778 197.279V202.263C110.778 202.843 110.731 203.695 110.638 204.82L115.516 197.279H118.038V207H116.052V202.104C116.052 201.835 116.066 201.398 116.096 200.795C116.131 200.191 116.16 199.752 116.184 199.477L111.323 207H108.801V197.279H110.778ZM126.563 205.022L126.678 204.601C126.918 203.728 127.126 203.057 127.302 202.588L129.481 197.279H132.232V207H130.325V199.151L130.167 199.679C129.903 200.622 129.681 201.316 129.499 201.762L127.372 207H125.808L123.681 201.727C123.388 200.965 123.118 200.106 122.872 199.151V207H120.982V197.279H123.716L125.825 202.43C126.013 202.904 126.259 203.769 126.563 205.022ZM143.808 202.122C143.808 203.71 143.4 204.949 142.586 205.84C141.771 206.73 140.638 207.176 139.185 207.176C138.276 207.176 137.474 206.971 136.776 206.561C136.079 206.15 135.543 205.562 135.168 204.794C134.793 204.026 134.605 203.136 134.605 202.122C134.605 200.546 135.01 199.315 135.818 198.431C136.627 197.546 137.767 197.104 139.237 197.104C140.644 197.104 141.757 197.558 142.577 198.466C143.397 199.368 143.808 200.587 143.808 202.122ZM136.732 202.122C136.732 204.366 137.562 205.488 139.22 205.488C140.86 205.488 141.681 204.366 141.681 202.122C141.681 199.901 140.854 198.791 139.202 198.791C138.335 198.791 137.705 199.078 137.312 199.652C136.926 200.227 136.732 201.05 136.732 202.122ZM150.109 207.176C148.639 207.176 147.52 206.748 146.752 205.893C145.99 205.031 145.609 203.798 145.609 202.192C145.609 200.558 146.008 199.301 146.805 198.422C147.607 197.543 148.765 197.104 150.276 197.104C151.302 197.104 152.225 197.294 153.045 197.675L152.421 199.336C151.548 198.996 150.827 198.826 150.259 198.826C148.577 198.826 147.736 199.942 147.736 202.175C147.736 203.265 147.944 204.085 148.36 204.636C148.782 205.181 149.397 205.453 150.206 205.453C151.126 205.453 151.996 205.225 152.816 204.768V206.569C152.447 206.786 152.052 206.941 151.63 207.035C151.214 207.129 150.707 207.176 150.109 207.176ZM162.405 197.279V198.896H159.241V207H157.167V198.896H154.003V197.279H162.405ZM166.255 197.279V202.263C166.255 202.843 166.208 203.695 166.114 204.82L170.992 197.279H173.515V207H171.528V202.104C171.528 201.835 171.543 201.398 171.572 200.795C171.607 200.191 171.637 199.752 171.66 199.477L166.8 207H164.277V197.279H166.255ZM50.0986 229.122C50.0986 230.71 49.6914 231.949 48.877 232.84C48.0625 233.73 46.9287 234.176 45.4756 234.176C44.5674 234.176 43.7646 233.971 43.0674 233.561C42.3701 233.15 41.834 232.562 41.459 231.794C41.084 231.026 40.8965 230.136 40.8965 229.122C40.8965 227.546 41.3008 226.315 42.1094 225.431C42.918 224.546 44.0576 224.104 45.5283 224.104C46.9346 224.104 48.0479 224.558 48.8682 225.466C49.6885 226.368 50.0986 227.587 50.0986 229.122ZM43.0234 229.122C43.0234 231.366 43.8525 232.488 45.5107 232.488C47.1514 232.488 47.9717 231.366 47.9717 229.122C47.9717 226.901 47.1455 225.791 45.4932 225.791C44.626 225.791 43.9961 226.078 43.6035 226.652C43.2168 227.227 43.0234 228.05 43.0234 229.122ZM59.7842 224.279V225.896H56.6201V234H54.5459V225.896H51.3818V224.279H59.7842ZM74.9541 229.122C74.9541 230.71 74.5469 231.949 73.7324 232.84C72.918 233.73 71.7842 234.176 70.3311 234.176C69.4229 234.176 68.6201 233.971 67.9229 233.561C67.2256 233.15 66.6895 232.562 66.3145 231.794C65.9395 231.026 65.752 230.136 65.752 229.122C65.752 227.546 66.1562 226.315 66.9648 225.431C67.7734 224.546 68.9131 224.104 70.3838 224.104C71.79 224.104 72.9033 224.558 73.7236 225.466C74.5439 226.368 74.9541 227.587 74.9541 229.122ZM67.8789 229.122C67.8789 231.366 68.708 232.488 70.3662 232.488C72.0068 232.488 72.8271 231.366 72.8271 229.122C72.8271 226.901 72.001 225.791 70.3486 225.791C69.4814 225.791 68.8516 226.078 68.459 226.652C68.0723 227.227 67.8789 228.05 67.8789 229.122ZM76.7734 228.164C76.7734 225.996 77.1396 224.329 77.8721 223.163C78.6104 221.997 79.7822 221.247 81.3877 220.913C82.6006 220.667 83.998 220.427 85.5801 220.192L85.8701 222.012C83.9482 222.305 82.542 222.533 81.6514 222.697C80.7314 222.867 80.0664 223.245 79.6562 223.831C79.252 224.417 79.0176 225.299 78.9531 226.477H79.085C79.4189 225.99 79.8555 225.615 80.3945 225.352C80.9336 225.082 81.5107 224.947 82.126 224.947C83.3213 224.947 84.2529 225.325 84.9209 226.081C85.5889 226.837 85.9229 227.897 85.9229 229.263C85.9229 230.827 85.5156 232.037 84.7012 232.893C83.8926 233.748 82.7705 234.176 81.335 234.176C79.9111 234.176 78.7949 233.648 77.9863 232.594C77.1777 231.539 76.7734 230.062 76.7734 228.164ZM81.4756 232.488C83.0107 232.488 83.7783 231.48 83.7783 229.465C83.7783 227.52 83.084 226.547 81.6953 226.547C81.3145 226.547 80.9453 226.629 80.5879 226.793C80.2305 226.957 79.8994 227.174 79.5947 227.443C79.2959 227.713 79.0645 227.991 78.9004 228.278C78.9004 229.661 79.1201 230.71 79.5596 231.425C79.999 232.134 80.6377 232.488 81.4756 232.488ZM92.1719 224.279V228.164H94.4922C95.9043 228.164 96.9502 228.398 97.6299 228.867C98.3154 229.336 98.6582 230.039 98.6582 230.977C98.6582 231.967 98.3125 232.72 97.6211 233.235C96.9297 233.745 95.9014 234 94.5361 234H90.1064V225.896H87.0039V224.279H92.1719ZM96.584 231.029C96.584 230.543 96.4053 230.203 96.0479 230.01C95.6963 229.816 95.1602 229.72 94.4395 229.72H92.1719V232.471H94.4922C95.8867 232.471 96.584 231.99 96.584 231.029ZM105.188 234.176C103.677 234.176 102.493 233.736 101.638 232.857C100.788 231.973 100.363 230.757 100.363 229.21C100.363 227.622 100.759 226.374 101.55 225.466C102.341 224.558 103.428 224.104 104.811 224.104C106.094 224.104 107.107 224.493 107.852 225.272C108.596 226.052 108.968 227.124 108.968 228.489V229.605H102.49C102.52 230.549 102.774 231.275 103.255 231.785C103.735 232.289 104.412 232.541 105.285 232.541C105.859 232.541 106.393 232.488 106.885 232.383C107.383 232.271 107.916 232.09 108.484 231.838V233.517C107.98 233.757 107.471 233.927 106.955 234.026C106.439 234.126 105.851 234.176 105.188 234.176ZM104.811 225.668C104.154 225.668 103.627 225.876 103.229 226.292C102.836 226.708 102.602 227.314 102.525 228.111H106.938C106.926 227.309 106.732 226.702 106.357 226.292C105.982 225.876 105.467 225.668 104.811 225.668ZM116.896 232.022L117.01 231.601C117.25 230.728 117.458 230.057 117.634 229.588L119.813 224.279H122.564V234H120.657V226.151L120.499 226.679C120.235 227.622 120.013 228.316 119.831 228.762L117.704 234H116.14L114.013 228.727C113.72 227.965 113.45 227.106 113.204 226.151V234H111.314V224.279H114.048L116.157 229.43C116.345 229.904 116.591 230.769 116.896 232.022ZM131.6 234L131.187 232.646H131.116C130.647 233.238 130.176 233.643 129.701 233.859C129.227 234.07 128.617 234.176 127.873 234.176C126.918 234.176 126.171 233.918 125.632 233.402C125.099 232.887 124.832 232.157 124.832 231.214C124.832 230.212 125.204 229.456 125.948 228.946C126.692 228.437 127.826 228.158 129.35 228.111L131.028 228.059V227.54C131.028 226.919 130.882 226.456 130.589 226.151C130.302 225.841 129.854 225.686 129.244 225.686C128.746 225.686 128.269 225.759 127.812 225.905C127.354 226.052 126.915 226.225 126.493 226.424L125.825 224.947C126.353 224.672 126.93 224.464 127.557 224.323C128.184 224.177 128.775 224.104 129.332 224.104C130.568 224.104 131.5 224.373 132.127 224.912C132.76 225.451 133.076 226.298 133.076 227.452V234H131.6ZM128.523 232.594C129.273 232.594 129.874 232.386 130.325 231.97C130.782 231.548 131.011 230.959 131.011 230.203V229.359L129.763 229.412C128.79 229.447 128.081 229.611 127.636 229.904C127.196 230.191 126.977 230.634 126.977 231.231C126.977 231.665 127.105 232.002 127.363 232.242C127.621 232.477 128.008 232.594 128.523 232.594ZM149.134 224.279V234H147.06V225.914H142.7V234H140.635V224.279H149.134ZM160.718 229.122C160.718 230.71 160.311 231.949 159.496 232.84C158.682 233.73 157.548 234.176 156.095 234.176C155.187 234.176 154.384 233.971 153.687 233.561C152.989 233.15 152.453 232.562 152.078 231.794C151.703 231.026 151.516 230.136 151.516 229.122C151.516 227.546 151.92 226.315 152.729 225.431C153.537 224.546 154.677 224.104 156.147 224.104C157.554 224.104 158.667 224.558 159.487 225.466C160.308 226.368 160.718 227.587 160.718 229.122ZM153.643 229.122C153.643 231.366 154.472 232.488 156.13 232.488C157.771 232.488 158.591 231.366 158.591 229.122C158.591 226.901 157.765 225.791 156.112 225.791C155.245 225.791 154.615 226.078 154.223 226.652C153.836 227.227 153.643 228.05 153.643 229.122ZM169.129 224.279H171.396L167.38 228.964L171.739 234H169.366L165.165 229.069V234H163.1V224.279H165.165V228.999L169.129 224.279ZM171.871 224.279H174.121L176.099 229.79C176.397 230.575 176.597 231.313 176.696 232.005H176.767C176.819 231.683 176.916 231.293 177.057 230.836C177.197 230.373 177.941 228.188 179.289 224.279H181.521L177.364 235.292C176.608 237.313 175.349 238.324 173.585 238.324C173.128 238.324 172.683 238.274 172.249 238.175V236.54C172.56 236.61 172.914 236.646 173.312 236.646C174.309 236.646 175.009 236.068 175.413 234.914L175.773 234L171.871 224.279ZM191.497 224.279V234H189.423V225.914H185.063V234H182.998V224.279H191.497ZM200.488 224.279H202.756L198.739 228.964L203.099 234H200.726L196.524 229.069V234H194.459V224.279H196.524V228.999L200.488 224.279ZM206.685 224.279V229.263C206.685 229.843 206.638 230.695 206.544 231.82L211.422 224.279H213.944V234H211.958V229.104C211.958 228.835 211.973 228.398 212.002 227.795C212.037 227.191 212.066 226.752 212.09 226.477L207.229 234H204.707V224.279H206.685Z" fill="#2A2A2A"/>
<g clip-path="url(#clip0_7_336)">
<path d="M121.566 78.9379C121.117 78.2375 120.892 77.4163 120.925 76.5844L121.236 70.8084C121.41 67.7225 119.737 64.8281 116.977 63.4378L111.862 60.8511C111.122 60.4804 110.521 59.8802 110.15 59.1395L107.564 54.0245C106.174 51.2645 103.279 49.5916 100.193 49.7656L94.4171 50.0771C93.5837 50.1211 92.7586 49.8963 92.0635 49.4351L87.2797 46.2847C84.6838 44.5731 81.3176 44.5731 78.7225 46.2847L73.9379 49.4351C73.2375 49.8849 72.4163 50.109 71.5844 50.0771L65.8084 49.7656C62.7225 49.5916 59.8281 51.2645 58.4378 54.0245L55.8511 59.1395C55.4804 59.8802 54.8802 60.4804 54.1395 60.8511L49.0245 63.4378C46.2645 64.8281 44.5916 67.7225 44.7656 70.8084L45.0771 76.5844C45.1234 77.4178 44.8985 78.2436 44.4351 78.9379L41.2847 83.7225C39.5731 86.3176 39.5731 89.6838 41.2847 92.2797L44.4351 97.0635C44.8849 97.764 45.109 98.5852 45.0771 99.4171L44.7656 105.193C44.5916 108.279 46.2645 111.174 49.0245 112.564L54.1395 115.15C54.8802 115.521 55.4804 116.122 55.8511 116.862L58.4378 121.977C59.8281 124.737 62.7225 126.41 65.8084 126.236L71.5844 125.925C72.4178 125.88 73.2428 126.106 73.9379 126.566L78.7225 129.718C81.3176 131.428 84.6838 131.428 87.2797 129.718L92.0635 126.566C92.764 126.117 93.5852 125.892 94.4171 125.925L100.193 126.236C103.279 126.41 106.174 124.737 107.564 121.977L110.15 116.862C110.521 116.122 111.122 115.521 111.862 115.15L116.977 112.564C119.737 111.174 121.41 108.279 121.236 105.193L120.925 99.4171C120.878 98.5837 121.103 97.7579 121.566 97.0635L124.718 92.2797C126.428 89.6838 126.428 86.3176 124.718 83.7225L121.566 78.9379ZM121.469 90.1404L118.319 94.9242C117.402 96.3167 116.96 97.9668 117.054 99.6305L117.366 105.407C117.443 106.952 116.605 108.399 115.227 109.102L110.112 111.688C108.624 112.437 107.418 113.644 106.669 115.131L104.083 120.246C103.383 121.628 101.934 122.467 100.388 122.385L94.6115 122.074C92.9486 121.988 91.3008 122.431 89.9052 123.338L85.1404 126.469C83.8421 127.325 82.1594 127.325 80.8618 126.469L76.0772 123.319C74.8002 122.481 73.3066 122.035 71.7789 122.035C71.636 122.032 71.4932 122.039 71.3512 122.054L65.5752 122.366C64.03 122.443 62.5828 121.605 61.88 120.227L59.2933 115.112C58.545 113.624 57.3386 112.418 55.8511 111.669L50.7361 109.083C49.3542 108.383 48.5155 106.934 48.5967 105.388L48.9082 99.6115C48.9941 97.9486 48.5512 96.3008 47.6441 94.9052L44.5324 90.1404C43.6762 88.8421 43.6762 87.1594 44.5324 85.8618L47.6828 81.0772C48.599 79.6847 49.0419 78.0346 48.947 76.3709L48.6355 70.5949C48.5595 69.049 49.3967 67.6025 50.7748 66.8998L55.8898 64.313C57.3773 63.5647 58.5845 62.3576 59.332 60.8708L61.9188 55.7558C62.6185 54.3739 64.0672 53.5345 65.6139 53.6165L71.3899 53.9272C73.0529 54.0131 74.7007 53.5709 76.097 52.6631L80.8618 49.5324C82.1594 48.6762 83.8421 48.6762 85.1404 49.5324L89.9242 52.6828C91.3167 53.599 92.9668 54.0419 94.6305 53.947L100.407 53.6355C101.952 53.5595 103.399 54.3967 104.102 55.7748L106.688 60.8898C107.437 62.3773 108.644 63.5845 110.131 64.332L115.246 66.9188C116.628 67.6185 117.467 69.0672 117.385 70.6139L117.074 76.3899C116.988 78.0529 117.431 79.7007 118.338 81.097L121.489 85.8808C122.329 87.1783 122.321 88.8504 121.469 90.1404Z" fill="#1946BA"/>
<path d="M75.4345 87.1054C79.119 87.1054 82.1054 84.119 82.1054 80.4345C82.1054 76.7507 79.119 73.7636 75.4345 73.7636C71.7507 73.7636 68.7636 76.7507 68.7636 80.4345C68.7697 84.116 71.753 87.0993 75.4345 87.1054ZM75.4345 77.6343C76.9706 77.6343 78.2157 78.8794 78.2157 80.4155C78.2157 81.9509 76.9706 83.196 75.4345 83.196C73.8984 83.196 72.6533 81.9509 72.6533 80.4155C72.6533 78.8794 73.8984 77.6343 75.4345 77.6343Z" fill="#1946BA"/>
<path d="M90.5654 88.8945C86.8808 88.8945 83.8945 91.8808 83.8945 95.5654C83.8945 99.2491 86.8808 102.236 90.5654 102.236C94.2491 102.236 97.2363 99.2491 97.2363 95.5654C97.2302 91.8839 94.2469 88.9005 90.5654 88.8945ZM90.5654 98.3656C89.0293 98.3656 87.7841 97.1205 87.7841 95.5851C87.7841 94.049 89.0293 92.8039 90.5654 92.8039C92.1015 92.8039 93.3466 94.049 93.3466 95.5851C93.3466 97.1205 92.1015 98.3656 90.5654 98.3656Z" fill="#1946BA"/>
<path d="M95.4859 75.5139C95.122 75.15 94.629 74.9457 94.1147 74.9457C93.6003 74.9457 93.1065 75.15 92.7434 75.5139L71.1559 97.1015C70.792 97.4654 70.5869 97.9584 70.5869 98.4727C70.5869 98.987 70.792 99.4808 71.1559 99.844C71.5205 100.212 72.0189 100.415 72.537 100.408C73.0529 100.406 73.5482 100.203 73.9174 99.844L95.5049 78.2564C96.2486 77.4907 96.2395 76.2698 95.4859 75.5139Z" fill="#1946BA"/>
</g>
<defs>
<filter id="filter0_d_7_336" x="0" y="0" width="335" height="305" filterUnits="userSpaceOnUse" color-interpolation-filters="sRGB">
<feFlood flood-opacity="0" result="BackgroundImageFix"/>
<feColorMatrix in="SourceAlpha" type="matrix" values="0 0 0 0 0 0 0 0 0 0 0 0 0 0 0 0 0 0 127 0" result="hardAlpha"/>
<feOffset dy="5"/>
<feGaussianBlur stdDeviation="10"/>
<feColorMatrix type="matrix" values="0 0 0 0 0.0980392 0 0 0 0 0.27451 0 0 0 0 0.729412 0 0 0 0.2 0"/>
<feBlend mode="normal" in2="BackgroundImageFix" result="effect1_dropShadow_7_336"/>
<feBlend mode="normal" in="SourceGraphic" in2="effect1_dropShadow_7_336" result="shape"/>
</filter>
<clipPath id="clip0_7_336">
<rect width="86" height="86" fill="white" transform="translate(40 45)"/>
</clipPath>
</defs>
</svg>
