<svg width="167" height="157" viewBox="0 0 167 157" fill="none" xmlns="http://www.w3.org/2000/svg">
<path d="M0 71.8904C0 42.1275 24.3081 18 54.2937 18C63.0444 18 71.3116 20.0548 78.6323 23.7049C79.0594 23.9179 79.4833 24.1362 79.9039 24.36C96.829 33.1707 105.391 41.2642 120.069 42.7425C120.236 42.7575 120.403 42.7734 120.57 42.7901C146.645 45.3978 167 67.2486 167 93.8182C167 122.144 143.865 145.107 115.327 145.107C106.829 145.107 98.8095 143.071 91.7377 139.463C82.0022 134.496 76.2302 139.463 71.6891 145.107C65.8572 152.356 56.8775 157 46.8049 157C30.3654 157 16.837 144.629 15.1539 128.754C15.0373 127.655 14.9776 126.539 14.9776 125.409C14.9776 125.277 14.9784 125.145 14.98 125.013C13.9144 111.927 8.33986 100.869 6.87979 98.1661C6.76164 97.9565 6.64487 97.7461 6.52947 97.5348C5.16973 95.0449 4.00184 92.4368 3.04547 89.7299C1.07273 84.1464 0 78.1427 0 71.8904Z" fill="white"/>
<path d="M139 12C139 18.6274 133.627 24 127 24C120.373 24 115 18.6274 115 12C115 5.37258 120.373 0 127 0C133.627 0 139 5.37258 139 12Z" fill="white"/>
<path d="M102 16C102 19.3137 99.3137 22 96 22C92.6863 22 90 19.3137 90 16C90 12.6863 92.6863 10 96 10C99.3137 10 102 12.6863 102 16Z" fill="white"/>
<path d="M73.9994 83.6621L78.5966 88.2933C78.9152 88.6185 79.3502 88.8027 79.8051 88.8041C80.2568 88.8007 80.6897 88.6238 81.0143 88.3106L89.2045 80.1204C89.8669 79.4579 89.8669 78.3824 89.2045 77.72C88.5414 77.0569 87.4665 77.0569 86.8034 77.72L79.8224 84.701L76.4344 81.2783C75.7759 80.6059 74.6971 80.5946 74.0247 81.2531C73.3523 81.9109 73.3409 82.9897 73.9994 83.6621Z" fill="#1946BA"/>
<path d="M115.323 65.5964H52.8176L52.3068 62.6001C51.4814 57.6882 47.2247 54.0946 42.2444 54.1033H38.7027C37.7622 54.1033 37 54.8662 37 55.806C37 56.7464 37.7622 57.5086 38.7027 57.5086H42.2271C45.55 57.5013 48.3893 59.901 48.9361 63.1787L56.9553 110.071C56.6054 111.037 56.4265 112.057 56.4279 113.085C56.4259 117.736 59.9616 121.627 64.5921 122.068C69.2232 122.508 73.4294 119.356 74.306 114.787H89.6468C90.5287 119.349 94.7329 122.494 99.358 122.051C103.983 121.608 107.514 117.722 107.514 113.076C107.514 108.429 103.983 104.545 99.358 104.102C94.7329 103.659 90.5287 106.803 89.6468 111.365H74.306C73.7008 108.246 71.4999 105.675 68.5122 104.596C65.5239 103.518 62.1884 104.09 59.7308 106.104L58.6919 100.059H100.169C104.751 100.043 108.767 96.9929 110.011 92.5839L116.941 67.7247C117.079 67.2133 116.972 66.6659 116.652 66.2435C116.338 65.8285 115.844 65.5877 115.323 65.5964ZM98.5007 107.482C101.604 107.482 104.12 109.998 104.12 113.101C104.12 116.205 101.604 118.72 98.5007 118.72C95.3973 118.72 92.8819 116.205 92.8819 113.101C92.8852 110 95.3986 107.486 98.5007 107.482ZM65.4687 107.482C68.5721 107.482 71.0875 109.998 71.0875 113.101C71.0875 116.205 68.5721 118.72 65.4687 118.72C62.3653 118.72 59.8498 116.205 59.8498 113.101C59.8512 112.42 59.9782 111.744 60.2243 111.109C60.2769 111.005 60.3227 110.896 60.3607 110.786C61.2619 108.773 63.2632 107.478 65.4687 107.482ZM106.759 91.6986C105.934 94.6397 103.258 96.6763 100.203 96.6876H58.1305L53.397 69.0017H113.076L106.759 91.6986Z" fill="#1946BA"/>
</svg>
