<svg width="168" height="141" viewBox="0 0 168 141" fill="none" xmlns="http://www.w3.org/2000/svg">
<path d="M0 75.0484C0 111.472 29.59 141 66.0912 141C87.1739 141 105.951 131.149 118.052 115.809C127.961 103.248 135.829 97.5641 148.051 86.8742C158.44 77.7872 165 64.4468 165 49.5774C165 22.1966 142.756 0 115.318 0C110.409 0 105.666 0.710393 101.188 2.03377C85.6906 6.61305 77.942 7.90348 60.6215 9.3194C26.6793 12.0941 0 40.4622 0 75.0484Z" fill="#1946BA"/>
<path d="M168 113C168 121.284 161.284 128 153 128C144.716 128 138 121.284 138 113C138 104.716 144.716 98 153 98C161.284 98 168 104.716 168 113Z" fill="#1946BA"/>
<path d="M167 88C167 85.7909 165.209 84 163 84C160.791 84 159 85.7909 159 88C159 90.2091 160.791 92 163 92C165.209 92 167 90.2091 167 88Z" fill="#1946BA"/>
<path d="M119.39 66.8489H115.196V54.7386C115.194 53.8705 114.481 53.1683 113.602 53.1659H107.112V42.8643C107.108 39.8251 104.612 37.3627 101.531 37.3596H80.5629L76.5603 33.3958C75.5812 32.4208 74.2196 31.9152 72.8319 32.0117C71.4435 32.1087 70.1672 32.798 69.337 33.8996L66.7384 37.3596H53.5672C48.2853 37.3633 44.0044 41.5858 44 46.7962V92.5635C44.0044 97.7732 48.2853 101.996 53.5672 102H113.698C114.577 101.997 115.29 101.295 115.292 100.427V87.8452H119.405C120.286 87.8421 120.998 87.1399 121 86.2724V68.4216C120.99 67.5505 120.272 66.8501 119.39 66.8489ZM101.531 40.5052C102.166 40.5039 102.774 40.7521 103.223 41.1951C103.672 41.6374 103.923 42.2383 103.923 42.8643V53.1659H96.5238L83.752 40.5052H101.531ZM71.8882 35.7869C72.1654 35.4201 72.5902 35.191 73.0524 35.1578C73.5145 35.1246 73.9686 35.2905 74.2962 35.6136L92.0118 53.1659H58.813L71.8882 35.7869ZM47.1891 46.7962C47.1878 43.3208 50.0443 40.5039 53.5672 40.5052H64.3783L54.8429 53.1659H53.5672C50.0443 53.1665 47.1878 50.3496 47.1891 46.8748V46.7962ZM53.5672 98.8545C50.0443 98.8551 47.1878 96.0383 47.1891 92.5635V53.9049C48.9406 55.4574 51.2128 56.3145 53.5672 56.3114H95.5198C95.7814 56.374 96.0548 56.374 96.317 56.3114H112.023V66.8489H102.998C98.5955 66.8501 95.0271 70.3698 95.0252 74.7127V79.9967C95.0271 84.339 98.5955 87.8593 102.998 87.8605H112.103V98.8545H53.5672ZM117.795 84.715H102.982C100.343 84.7076 98.2062 82.5998 98.1981 79.9967V74.7127C98.2062 72.1096 100.343 70.0018 102.982 69.9944H113.107C113.428 70.0988 113.775 70.0988 114.096 69.9944H117.795V84.715Z" fill="white"/>
<path d="M104.576 73.1399C103.697 73.1424 102.984 73.8446 102.982 74.7127V79.9968C102.982 80.8655 103.696 81.5695 104.576 81.5695C105.457 81.5695 106.171 80.8655 106.171 79.9968V74.7127C106.173 74.2949 106.005 73.8937 105.706 73.5988C105.407 73.3033 105 73.1381 104.576 73.1399Z" fill="white"/>
</svg>
